<svg width="13" height="13" viewBox="0 0 13 13" fill="none" xmlns="http://www.w3.org/2000/svg">
<g clip-path="url(#clip0_1_5870)">
<path d="M4.33333 1.08289V3.24973M8.66667 1.08289V3.24973M1.625 5.41657H11.375M4.33333 7.58341H4.33875M6.5 7.58341H6.50542M8.66667 7.58341H8.67208M4.33333 9.75025H4.33875M6.5 9.75025H6.50542M8.66667 9.75025H8.67208M2.70833 2.16631H10.2917C10.89 2.16631 11.375 2.65137 11.375 3.24973V10.8337C11.375 11.432 10.89 11.9171 10.2917 11.9171H2.70833C2.11002 11.9171 1.625 11.432 1.625 10.8337V3.24973C1.625 2.65137 2.11002 2.16631 2.70833 2.16631Z" stroke="#4E5E58" stroke-width="1.8" stroke-linecap="round"/>
</g>
<defs>
<clipPath id="clip0_1_5870">
<rect width="13" height="13" fill="white"/>
</clipPath>
</defs>
</svg>
